<?xml version="1.0" encoding="UTF-8"?><svg id="Layer_1" xmlns="http://www.w3.org/2000/svg" xmlns:xlink="http://www.w3.org/1999/xlink" viewBox="0 0 922.66 1052.28"><defs><linearGradient id="linear-gradient" x1="172.35" y1="-137.91" x2="157.63" y2="1095.9" gradientUnits="userSpaceOnUse"><stop offset="0" stop-color="#83a2ff"/><stop offset="1" stop-color="#db9cff"/></linearGradient></defs><rect x="0" y="0" width="328.89" height="1049.32" rx="164.44" ry="164.44" style="fill:url(#linear-gradient); stroke-width:0px;"/><path d="M528.15,263.31c-217.84,0-394.48,176.61-394.48,394.48s176.64,394.48,394.48,394.48,394.51-176.61,394.51-394.48-176.64-394.48-394.51-394.48ZM525.77,788.61c-73.55,0-133.17-59.65-133.17-133.2s59.62-133.17,133.17-133.17,133.2,59.62,133.2,133.17-59.62,133.2-133.2,133.2Z" style="fill:#45c1ff; stroke-width:0px;"/><path d="M133.68,657.79c0,132.5,65.35,249.76,165.56,321.3,18.71-26.68,29.68-59.18,29.68-94.21V317.25c-116.79,68.49-195.23,195.35-195.23,340.54Z" style="fill:#3a5eff; stroke-width:0px;"/></svg>